<?xml version="1.0" encoding="UTF-8" standalone="no"?>
<svg width="93px" height="93px" viewBox="0 0 93 93" version="1.1" xmlns="http://www.w3.org/2000/svg" xmlns:xlink="http://www.w3.org/1999/xlink">
    <!-- Generator: Sketch 39.1 (31720) - http://www.bohemiancoding.com/sketch -->
    <title>Shape</title>
    <desc>Created with Sketch.</desc>
    <defs></defs>
    <g id="Page-1" stroke="none" stroke-width="1" fill="none" fill-rule="evenodd">
        <g id="Artboard" transform="translate(-92.000000, -177.000000)" fill="#4990E2">
            <g id="group" transform="translate(92.000000, 177.000000)">
                <path d="M29.5735537,29.4202027 L29.5735537,46.2317472 L50.6975207,46.2317472 L50.6975207,29.4202027 L29.5735537,29.4202027 L29.5735537,29.4202027 Z M0,0 L16.8991736,0 L16.8991736,4.20288611 L76.046281,4.20288611 L76.046281,0 L92.9454545,0 L92.9454545,16.8115444 L88.7206612,16.8115444 L88.7206612,75.6519499 L92.9454545,75.6519499 L92.9454545,92.4634943 L76.046281,92.4634943 L76.046281,88.2606082 L16.8991736,88.2606082 L16.8991736,92.4634943 L0,92.4634943 L0,75.6519499 L4.22479339,75.6519499 L4.22479339,16.8115444 L0,16.8115444 L0,0 L0,0 Z M16.8991736,75.6519499 L16.8991736,79.854836 L76.046281,79.854836 L76.046281,75.6519499 L80.2710744,75.6519499 L80.2710744,16.8115444 L76.046281,16.8115444 L76.046281,12.6086583 L16.8991736,12.6086583 L16.8991736,16.8115444 L12.6743802,16.8115444 L12.6743802,75.6519499 L16.8991736,75.6519499 L16.8991736,75.6519499 Z M21.1239669,21.0144305 L59.1471074,21.0144305 L59.1471074,37.8259749 L71.8214876,37.8259749 L71.8214876,71.4490638 L29.5735537,71.4490638 L29.5735537,54.6375194 L21.1239669,54.6375194 L21.1239669,21.0144305 L21.1239669,21.0144305 Z M59.1471074,54.6375194 L38.0231405,54.6375194 L38.0231405,63.0432916 L63.3719008,63.0432916 L63.3719008,46.2317472 L59.1471074,46.2317472 L59.1471074,54.6375194 L59.1471074,54.6375194 Z" id="Shape"></path>
            </g>
        </g>
    </g>
</svg>