<svg id="Camada_1" data-name="Camada 1" xmlns="http://www.w3.org/2000/svg" viewBox="0 0 24 21.63"><defs><style>.cls-1{fill:#FFFFFF;}</style></defs><title>ic_export-excel</title><path class="cls-1" d="M19.48,5H12.39V7.3h2.35V8.87H12.39v1.54h2.32V12H12.39v1.55h2.32v1.55H12.39V16.6h2.32v1.55H12.39v2.32h7.09a0.66,0.66,0,0,0,.65-0.67V5.66A0.66,0.66,0,0,0,19.48,5Zm-0.9,13.16h-3.1V16.6h3.1v1.55Zm0-3.1h-3.1V13.51h3.1v1.55Zm0-3.1h-3.1V10.41h3.1V12Zm0-3.1h-3.1V7.31h3.1V8.86Z" transform="translate(0 -1.16)"/><path class="cls-1" d="M0,20.56L11.61,22.8V2.67L0,4.91V20.56ZM2.39,8.82H4.53l1.12,2.35a4.11,4.11,0,0,1,.24.66h0q0.07-.23.25-0.68L7.4,8.82h2L7,12.71l2.42,4H7.34L6,14.11a2.26,2.26,0,0,1-.16-0.52h0a4,4,0,0,1-.18.55L4.28,16.67H2.17l2.5-3.92Z" transform="translate(0 -1.16)"/><path class="cls-1" d="M18.58,1.16V2.71h2.78L20,4.1A1.26,1.26,0,0,1,21.06,5.2L22.45,3.8V6.58H24V1.16H18.58Z" transform="translate(0 -1.16)"/></svg>