<?xml version="1.0" encoding="UTF-8" standalone="no"?>
<svg width="93px" height="93px" viewBox="0 0 93 93" version="1.1" xmlns="http://www.w3.org/2000/svg" xmlns:xlink="http://www.w3.org/1999/xlink">
    <!-- Generator: Sketch 39.1 (31720) - http://www.bohemiancoding.com/sketch -->
    <title>Shape</title>
    <desc>Created with Sketch.</desc>
    <defs></defs>
    <g id="Page-1" stroke="none" stroke-width="1" fill="none" fill-rule="evenodd">
        <g id="Artboard" transform="translate(-245.000000, -177.000000)" fill="#4990E2">
            <g id="ungroup" transform="translate(245.000000, 177.000000)">
                <path d="M0,0 L18.5890909,0 L18.5890909,4.62317472 L51.12,4.62317472 L51.12,0 L69.7090909,0 L69.7090909,18.4926989 L65.0618182,18.4926989 L65.0618182,32.362223 L74.3563636,32.362223 L74.3563636,27.7390483 L92.9454545,27.7390483 L92.9454545,46.2317472 L88.2981818,46.2317472 L88.2981818,73.9707955 L92.9454545,73.9707955 L92.9454545,92.4634943 L74.3563636,92.4634943 L74.3563636,87.8403196 L46.4727273,87.8403196 L46.4727273,92.4634943 L27.8836364,92.4634943 L27.8836364,73.9707955 L32.5309091,73.9707955 L32.5309091,64.724446 L18.5890909,64.724446 L18.5890909,69.3476207 L0,69.3476207 L0,50.8549219 L4.64727273,50.8549219 L4.64727273,18.4926989 L0,18.4926989 L0,0 L0,0 Z M74.3563636,46.2317472 L74.3563636,41.6085724 L65.0618182,41.6085724 L65.0618182,50.8549219 L69.7090909,50.8549219 L69.7090909,69.3476207 L51.12,69.3476207 L51.12,64.724446 L41.8254545,64.724446 L41.8254545,73.9707955 L46.4727273,73.9707955 L46.4727273,78.5939702 L74.3563636,78.5939702 L74.3563636,73.9707955 L79.0036364,73.9707955 L79.0036364,46.2317472 L74.3563636,46.2317472 L74.3563636,46.2317472 Z M51.12,18.4926989 L51.12,13.8695241 L18.5890909,13.8695241 L18.5890909,18.4926989 L13.9418182,18.4926989 L13.9418182,50.8549219 L18.5890909,50.8549219 L18.5890909,55.4780966 L32.5309091,55.4780966 L32.5309091,46.2317472 L27.8836364,46.2317472 L27.8836364,27.7390483 L46.4727273,27.7390483 L46.4727273,32.362223 L55.7672727,32.362223 L55.7672727,18.4926989 L51.12,18.4926989 L51.12,18.4926989 Z M46.4727273,46.2317472 L41.8254545,46.2317472 L41.8254545,55.4780966 L51.12,55.4780966 L51.12,50.8549219 L55.7672727,50.8549219 L55.7672727,41.6085724 L46.4727273,41.6085724 L46.4727273,46.2317472 L46.4727273,46.2317472 Z" id="Shape"></path>
            </g>
        </g>
    </g>
</svg>